<?xml version="1.0" standalone="no"?><!DOCTYPE svg PUBLIC "-//W3C//DTD SVG 1.1//EN" "http://www.w3.org/Graphics/SVG/1.1/DTD/svg11.dtd"><svg
        class="icon" viewBox="0 0 1024 1024" version="1.1" xmlns="http://www.w3.org/2000/svg" xmlns:xlink="http://www.w3.org/1999/xlink" width="200" height="200"><path d="M175.232 478.848l0.704 0.768 62.272-62.272-0.704-0.768a121.472 121.472 0 0 1-37.12-89.6c0-35.264 12.288-64.832 37.12-89.6 24.832-24.896 54.72-37.12 89.6-37.12 34.944 0 64.832 12.224 89.664 37.12l184.704 184.64 62.272-62.272-184.704-185.088a207.616 207.616 0 0 0-151.872-62.592c-59.456 0-109.824 20.864-151.936 62.976-42.112 41.792-63.04 92.544-63.04 151.936 0 59.392 20.928 109.76 63.04 151.872z m369.344-303.808l-0.704 0.704 62.272 62.272 0.704-0.64c24.832-24.896 54.4-37.12 89.6-37.12 35.328 0 64.832 12.224 89.664 37.12 24.896 24.768 37.12 54.656 37.12 89.6 0 34.88-12.224 64.768-37.12 89.6L601.472 601.28l62.272 62.272 185.024-184.704a207.36 207.36 0 0 0 63.04-151.872c0-59.392-20.928-109.824-63.04-151.936a207.36 207.36 0 0 0-152.32-62.976c-59.008 0-109.76 20.864-151.872 62.976zM479.04 848.256l0.768-0.704-62.336-62.336-0.64 0.768c-24.896 24.832-54.4 37.056-89.664 37.056a121.472 121.472 0 0 1-89.664-37.12 122.048 122.048 0 0 1-37.12-89.6c0-34.944 12.288-64.832 37.12-89.6l184.704-184.704-62.336-62.272-184.96 184.64a207.616 207.616 0 0 0-62.72 151.936c0 59.392 20.928 109.824 63.04 151.936 41.728 42.112 92.48 62.976 151.936 62.976 59.008 0 109.76-20.864 151.872-62.976zM556.8 557.056a63.936 63.936 0 0 0 16.64-61.632 63.232 63.232 0 0 0-45.056-44.992 63.936 63.936 0 0 0-61.568 106.88A64 64 0 0 0 556.8 557.056z m291.648-12.288l-0.768-0.704-62.272 62.272 0.704 0.704c24.896 24.832 37.12 54.4 37.12 89.6 0 35.328-12.224 64.832-37.12 89.664-24.832 24.832-54.72 37.12-89.6 37.12a122.048 122.048 0 0 1-89.6-37.12L422.144 601.664l-62.336 62.272 184.704 185.024a207.36 207.36 0 0 0 151.936 62.976c59.392 0 109.76-20.864 151.936-62.976a207.36 207.36 0 0 0 62.976-151.936c0-59.776-20.864-110.528-62.976-152.32z" fill="#2c2c2c"></path></svg>