<svg xmlns="http://www.w3.org/2000/svg" width="256" height="256" viewBox="0 0 24 24"><path fill="currentColor" d="M5.189 18.1q-.814-1.085-1.251-2.37Q3.5 14.444 3.5 13q0-3.558 2.471-6.029T12 4.5h1.412l-2.12-2.12l.689-.688L15.288 5l-3.307 3.308l-.714-.714L13.362 5.5H12q-3.111 0-5.306 2.194T4.5 13q0 1.237.374 2.352t1.047 2.035zm6.08.092q-.096-.748-.455-1.32q-.358-.572-.756-1.107q-.399-.536-.709-1.103t-.31-1.278q0-1.219.87-2.09q.872-.871 2.091-.871t2.09.871t.872 2.09q0 .712-.311 1.269q-.31.556-.709 1.102q-.398.545-.756 1.117q-.359.572-.455 1.32zm.039 2.5v-1.115h1.384v1.115zm7.504-2.592l-.733-.713q.673-.92 1.047-2.035T19.5 13q0-1.611-.62-3.014t-1.724-2.43l.713-.714q1.239 1.174 1.935 2.744T20.5 13q0 1.444-.437 2.73q-.438 1.285-1.251 2.37"/></svg>