<?xml version="1.0" standalone="no"?><!DOCTYPE svg PUBLIC "-//W3C//DTD SVG 1.1//EN" "http://www.w3.org/Graphics/SVG/1.1/DTD/svg11.dtd"><svg t="1745206008718" class="icon" viewBox="0 0 1024 1024" version="1.1" xmlns="http://www.w3.org/2000/svg" p-id="2626" xmlns:xlink="http://www.w3.org/1999/xlink" width="200" height="200"><path d="M896.298 767.302c-32.349 0-61.998 12.427-84.666 32.349L598.594 609.28a222.394 222.394 0 0 0 39.89-127.255 219.695 219.695 0 0 0-23.74-100.306l139.684-114.827a156.3 156.3 0 0 0 221.65 4.328 156.3 156.3 0 0 0 4.328-221.65 156.3 156.3 0 0 0-221.65-4.328 157.09 157.09 0 0 0-28.578 189.3L593.753 347.23a222.44 222.44 0 0 0-179.06-89.507 222.348 222.348 0 0 0-133.726 44.218l-62.557-80.896a127.767 127.767 0 0 0 2.141-180.69 128.28 128.28 0 0 0-180.642-2.14c-50.13 49.059-52.318 130.513-2.7 181.201a128.93 128.93 0 0 0 148.294 25.321l65.256 84.666a218.112 218.112 0 0 0-59.857 152.064c0 58.787 22.668 114.316 63.628 156.393l-55.017 74.426a127.72 127.72 0 0 0-177.431 35.049A127.72 127.72 0 0 0 57.13 924.765a127.72 127.72 0 0 0 171.52-184.972l55.53-76.055a218.857 218.857 0 0 0 129.442 41.007 222.161 222.161 0 0 0 158.534-65.816l213.038 190.93a128.326 128.326 0 0 0 45.29 175.29 128.233 128.233 0 0 0 175.243-45.289 128.326 128.326 0 0 0-45.289-175.29 125.812 125.812 0 0 0-64.14-17.268z m0 0" p-id="2627"></path></svg>