<?xml version="1.0" standalone="no"?><!DOCTYPE svg PUBLIC "-//W3C//DTD SVG 1.1//EN" "http://www.w3.org/Graphics/SVG/1.1/DTD/svg11.dtd"><svg
        class="icon" viewBox="0 0 1030 1024" version="1.1" xmlns="http://www.w3.org/2000/svg" xmlns:xlink="http://www.w3.org/1999/xlink" width="201.171875" height="200"><path d="M140.8 1017.6c-38.4 0-70.4-12.8-96-38.4-25.6-25.6-38.4-57.6-38.4-96v-185.6c0-12.8 6.4-25.6 12.8-32s19.2-12.8 32-12.8 25.6 6.4 32 12.8 12.8 19.2 12.8 32v185.6c0 12.8 6.4 32 12.8 38.4s19.2 12.8 38.4 12.8h742.4c12.8 0 32-6.4 38.4-12.8 6.4-6.4 12.8-19.2 12.8-38.4v-185.6c0-12.8 6.4-25.6 12.8-32 6.4-6.4 19.2-12.8 32-12.8s25.6 6.4 32 12.8c6.4 6.4 12.8 19.2 12.8 32v185.6c0 38.4-12.8 70.4-38.4 96-25.6 25.6-57.6 38.4-96 38.4H140.8z"></path><path d="M537.6 12.8c6.4 6.4 12.8 19.2 12.8 32v544c0 6.4 6.4 6.4 6.4 6.4h6.4l153.6-160c6.4-6.4 12.8-19.2 25.6-19.2s25.6 6.4 32 12.8 12.8 19.2 12.8 32-6.4 25.6-12.8 32l-224 236.8c-6.4 6.4-19.2 12.8-32 12.8s-25.6-6.4-38.4-19.2L249.6 492.8c-6.4-6.4-12.8-19.2-12.8-32 0-6.4 6.4-12.8 19.2-25.6 6.4-6.4 19.2-12.8 32-12.8 0 0 19.2 6.4 25.6 12.8l147.2 160h6.4c6.4 0 6.4-6.4 6.4-6.4V51.2c0-12.8 6.4-25.6 12.8-32s19.2-12.8 32-12.8c6.4 0 12.8 0 19.2 6.4z"></path></svg>